<svg xmlns="http://www.w3.org/2000/svg" fill="#000" viewBox="0 0 25 25"><path fill="#000" fill-rule="evenodd" d="M24 21h-1l-.012-11.512A.488.488 0 0 0 22.5 9H20V1.5a.488.488 0 0 0-.488-.488H9.488A.488.488 0 0 0 9 1.5V20h-.337A3.515 3.515 0 0 0 7 18.337V1.359C7 .551 6.5 0 5.664 0H1S0 0 0 1s1 1 1 1h4v16.035A3.5 3.5 0 1 0 8.663 23H24s1 0 1-1c0-1.001-1-1-1-1zm-13.001 0l-.001-10H14l.001 4.236a.488.488 0 0 0 .781.39l1.137-1.245 1.301 1.246a.488.488 0 0 0 .78-.391v-4.235L21 11v9.999L10.999 21zm1.99-15.358a.488.488 0 0 0 .758.406l.706-.797.788.796A.487.487 0 0 0 16 5.64V3h2v6h-7V3h1.988v2.642z" clip-rule="evenodd"/></svg>